<mxfile host="app.diagrams.net" modified="2022-12-07T13:04:41.003Z" agent="5.0 (Windows NT 10.0; Win64; x64) AppleWebKit/537.36 (KHTML, like Gecko) Chrome/107.0.0.0 Safari/537.36" etag="mRMFBK-AI1ADKhmKdQFo" version="20.6.0" type="github">
  <diagram name="短期计划" id="d9b1e647-80fa-b4a2-5024-87a742678bcc">
    <mxGraphModel dx="1174" dy="645" grid="1" gridSize="10" guides="1" tooltips="1" connect="1" arrows="1" fold="1" page="1" pageScale="1" pageWidth="1100" pageHeight="850" background="none" math="0" shadow="0">
      <root>
        <mxCell id="0" />
        <mxCell id="1" parent="0" />
        <mxCell id="57fe6abec08f04cb-1" value="2023.1" style="shape=step;whiteSpace=wrap;html=1;fontSize=28;fillColor=#0080FF;fontColor=#FFFFFF;strokeColor=none;" parent="1" vertex="1">
          <mxGeometry x="50" y="233" width="170" height="80" as="geometry" />
        </mxCell>
        <mxCell id="57fe6abec08f04cb-2" value="2023.2/3" style="shape=step;whiteSpace=wrap;html=1;fontSize=28;fillColor=#0075E8;fontColor=#FFFFFF;strokeColor=none;" parent="1" vertex="1">
          <mxGeometry x="210" y="233" width="190" height="80" as="geometry" />
        </mxCell>
        <mxCell id="57fe6abec08f04cb-3" value="2023.5" style="shape=step;whiteSpace=wrap;html=1;fontSize=28;fillColor=#0067CC;fontColor=#FFFFFF;strokeColor=none;" parent="1" vertex="1">
          <mxGeometry x="380" y="233" width="170" height="80" as="geometry" />
        </mxCell>
        <mxCell id="57fe6abec08f04cb-4" value="2023.8" style="shape=step;whiteSpace=wrap;html=1;fontSize=28;fillColor=#0062C4;fontColor=#FFFFFF;strokeColor=none;" parent="1" vertex="1">
          <mxGeometry x="535" y="233" width="170" height="80" as="geometry" />
        </mxCell>
        <mxCell id="57fe6abec08f04cb-5" value="2023.12" style="shape=step;whiteSpace=wrap;html=1;fontSize=28;fillColor=#0059B0;fontColor=#FFFFFF;strokeColor=none;" parent="1" vertex="1">
          <mxGeometry x="690" y="233" width="170" height="80" as="geometry" />
        </mxCell>
        <mxCell id="57fe6abec08f04cb-6" value="2024.1-3" style="shape=step;whiteSpace=wrap;html=1;fontSize=28;fillColor=#004D99;fontColor=#FFFFFF;strokeColor=none;" parent="1" vertex="1">
          <mxGeometry x="840" y="233" width="190" height="80" as="geometry" />
        </mxCell>
        <mxCell id="57fe6abec08f04cb-7" value="2023-2024" style="text;html=1;strokeColor=none;fillColor=#04070A;align=center;verticalAlign=middle;whiteSpace=wrap;fontSize=54;fontStyle=1;fontColor=#EDF4FF;" parent="1" vertex="1">
          <mxGeometry x="50" y="110" width="990" height="60" as="geometry" />
        </mxCell>
        <mxCell id="57fe6abec08f04cb-9" value="&lt;font style=&quot;font-size: 16px;&quot;&gt;&lt;span style=&quot;font-weight: bold; font-size: 20px;&quot;&gt;项目测试&lt;br&gt;&lt;/span&gt;&lt;font style=&quot;font-weight: bold; font-size: 16px;&quot;&gt;&lt;span style=&quot;&quot;&gt;	&lt;/span&gt;&lt;span style=&quot;font-weight: 400;&quot;&gt;&lt;span style=&quot;white-space: pre;&quot;&gt;	&lt;/span&gt;|- 加班&lt;/span&gt;&lt;br style=&quot;font-size: 12px; font-weight: 400;&quot;&gt;&lt;span style=&quot;font-weight: 400;&quot;&gt;	&lt;/span&gt;&lt;span style=&quot;font-weight: 400;&quot;&gt;&lt;span style=&quot;white-space: pre;&quot;&gt;	&lt;/span&gt;|- 面试&lt;/span&gt;&lt;span style=&quot;font-weight: 400;&quot;&gt;&lt;br&gt;&lt;/span&gt;&lt;br&gt;&lt;br&gt;&lt;br&gt;节点风险：&lt;br&gt;&lt;/font&gt;&lt;br&gt;&lt;br&gt;&lt;font style=&quot;font-weight: bold; font-size: 16px;&quot;&gt;&lt;br&gt;潜在影响：&lt;br&gt;&lt;/font&gt;&lt;span style=&quot;white-space: pre;&quot;&gt;	&lt;/span&gt;|- 工作变动&lt;br&gt;&lt;span style=&quot;white-space: pre;&quot;&gt;	&lt;/span&gt;|- 精力开销&lt;br&gt;&lt;span style=&quot;white-space: pre;&quot;&gt;	&lt;/span&gt;|- 资金压力&lt;br&gt;&lt;/font&gt;&lt;font style=&quot;font-size: 16px;&quot;&gt;&lt;span style=&quot;white-space: pre;&quot;&gt;	&lt;/span&gt;&lt;br&gt;&lt;/font&gt;" style="text;spacingTop=-5;fillColor=#ffffff;whiteSpace=wrap;html=1;align=left;fontSize=12;fontFamily=Helvetica;fillColor=none;strokeColor=none;" parent="1" vertex="1">
          <mxGeometry x="230" y="334" width="140" height="470" as="geometry" />
        </mxCell>
        <mxCell id="57fe6abec08f04cb-10" value="&lt;b&gt;&lt;font style=&quot;font-size: 20px;&quot;&gt;房产/楼盘相关&lt;br&gt;&lt;/font&gt;&lt;/b&gt;&lt;blockquote style=&quot;margin: 0 0 0 40px; border: none; padding: 0px;&quot;&gt;&lt;span style=&quot;font-size: 16px;&quot;&gt;|- 地点&lt;/span&gt;&lt;br&gt;&lt;/blockquote&gt;&lt;blockquote style=&quot;margin: 0 0 0 40px; border: none; padding: 0px;&quot;&gt;&lt;span style=&quot;font-size: 16px;&quot;&gt;|- 楼盘&lt;/span&gt;&lt;/blockquote&gt;&lt;blockquote style=&quot;margin: 0 0 0 40px; border: none; padding: 0px;&quot;&gt;&lt;span style=&quot;font-size: 16px;&quot;&gt;|- 准备金&lt;/span&gt;&lt;/blockquote&gt;&lt;blockquote style=&quot;margin: 0 0 0 40px; border: none; padding: 0px;&quot;&gt;&lt;span style=&quot;font-size: 16px;&quot;&gt;|- 后续方案&lt;/span&gt;&lt;/blockquote&gt;" style="text;spacingTop=-5;fillColor=#ffffff;whiteSpace=wrap;html=1;align=left;fontSize=12;fontFamily=Helvetica;fillColor=none;strokeColor=none;" parent="1" vertex="1">
          <mxGeometry x="380" y="334" width="140" height="470" as="geometry" />
        </mxCell>
        <mxCell id="57fe6abec08f04cb-12" value="&lt;b style=&quot;font-size: 20px;&quot;&gt;考研/考公 试水&lt;/b&gt;&lt;br&gt;&lt;blockquote style=&quot;margin: 0px 0px 0px 40px; border: none; padding: 0px;&quot;&gt;&lt;span style=&quot;font-size: 16px;&quot;&gt;|- 工作调整&lt;/span&gt;&lt;br&gt;&lt;/blockquote&gt;&lt;blockquote style=&quot;margin: 0px 0px 0px 40px; border: none; padding: 0px;&quot;&gt;&lt;span style=&quot;font-size: 16px;&quot;&gt;|- 后续计划&lt;/span&gt;&lt;/blockquote&gt;&lt;font style=&quot;font-size: 16px;&quot;&gt;&lt;br&gt;&lt;b&gt;&lt;br&gt;&lt;br&gt;节点风险：&lt;br&gt;&lt;/b&gt;&lt;/font&gt;&lt;font style=&quot;font-size: 16px;&quot;&gt;&lt;span style=&quot;&quot;&gt;	&lt;/span&gt;&lt;span style=&quot;white-space: pre;&quot;&gt;	&lt;/span&gt;|- 准备情况&lt;br&gt;&lt;br&gt;&lt;br&gt;&lt;b&gt;潜在影响：&lt;br&gt;&lt;/b&gt;&lt;span style=&quot;white-space: pre;&quot;&gt;	&lt;/span&gt;|- 工作计划&lt;br&gt;&lt;/font&gt;" style="text;spacingTop=-5;fillColor=#ffffff;whiteSpace=wrap;html=1;align=left;fontSize=12;fontFamily=Helvetica;fillColor=none;strokeColor=none;" parent="1" vertex="1">
          <mxGeometry x="700" y="334" width="140" height="470" as="geometry" />
        </mxCell>
        <mxCell id="57fe6abec08f04cb-13" value="&lt;font style=&quot;font-size: 16px;&quot;&gt;&lt;b style=&quot;font-size: 20px;&quot;&gt;购房&lt;br&gt;&lt;/b&gt;&lt;blockquote style=&quot;margin: 0px 0px 0px 40px; border: none; padding: 0px;&quot;&gt;&lt;br&gt;&lt;/blockquote&gt;&lt;blockquote style=&quot;margin: 0px 0px 0px 40px; border: none; padding: 0px;&quot;&gt;&lt;span style=&quot;font-size: 16px;&quot;&gt;&lt;br&gt;&lt;/span&gt;&lt;/blockquote&gt;&lt;font style=&quot;font-size: 16px;&quot;&gt;&lt;br&gt;&lt;br&gt;&lt;br&gt;&lt;b&gt;节点风险：&lt;/b&gt;&lt;br&gt;&lt;span style=&quot;&quot;&gt;	&lt;/span&gt;&lt;span style=&quot;white-space: pre;&quot;&gt;	&lt;/span&gt;|-&amp;nbsp;&lt;/font&gt;依赖于5-8月&lt;br&gt;&lt;br&gt;&lt;br&gt;&lt;b&gt;潜在影响：&lt;/b&gt;&lt;br&gt;&lt;/font&gt;" style="text;spacingTop=-5;fillColor=#ffffff;whiteSpace=wrap;html=1;align=left;fontSize=12;fontFamily=Helvetica;fillColor=none;strokeColor=none;" parent="1" vertex="1">
          <mxGeometry x="855" y="334" width="140" height="470" as="geometry" />
        </mxCell>
        <mxCell id="mh83t6KGhlJCsGPIR6HT-12" value="&lt;b&gt;预期2023收入35W+&lt;span style=&quot;white-space: pre;&quot;&gt;	&lt;span style=&quot;white-space: pre;&quot;&gt;	&lt;/span&gt;&lt;span style=&quot;white-space: pre;&quot;&gt;	&lt;/span&gt;&lt;span style=&quot;white-space: pre;&quot;&gt;	&lt;/span&gt;&lt;span style=&quot;white-space: pre;&quot;&gt;	&lt;/span&gt;&lt;span style=&quot;white-space: pre;&quot;&gt;	&lt;/span&gt;&lt;span style=&quot;white-space: pre;&quot;&gt;	&lt;/span&gt;&lt;span style=&quot;white-space: pre;&quot;&gt;	&lt;/span&gt;&lt;span style=&quot;white-space: pre;&quot;&gt;	&lt;/span&gt;&lt;span style=&quot;white-space: pre;&quot;&gt;	&lt;/span&gt;&lt;span style=&quot;white-space: pre;&quot;&gt;	&lt;/span&gt;&lt;span style=&quot;white-space: pre;&quot;&gt;	&lt;span style=&quot;white-space: pre;&quot;&gt;	&lt;/span&gt; &lt;/span&gt; &lt;/span&gt;&amp;nbsp; &amp;nbsp; &amp;nbsp; &amp;nbsp; 生活支出约10W/年&lt;/b&gt;" style="rounded=0;whiteSpace=wrap;html=1;fontSize=20;fillColor=#e1d5e7;strokeColor=#9673a6;align=left;" vertex="1" parent="1">
          <mxGeometry x="50" y="180" width="990" height="40" as="geometry" />
        </mxCell>
        <mxCell id="mh83t6KGhlJCsGPIR6HT-25" value="&lt;font style=&quot;font-weight: bold;&quot;&gt;&lt;span style=&quot;font-size: 20px;&quot;&gt;春节/回家&lt;br&gt;&lt;/span&gt;&lt;font style=&quot;font-size: 16px;&quot;&gt;&lt;span style=&quot;&quot;&gt;	&lt;/span&gt;&lt;span style=&quot;font-weight: 400;&quot;&gt;&lt;span style=&quot;white-space: pre;&quot;&gt;	&lt;/span&gt;|- 家里情况&lt;br&gt;&lt;/span&gt;&lt;span style=&quot;font-weight: 400;&quot;&gt;&lt;span style=&quot;white-space: pre;&quot;&gt;	&lt;/span&gt;|- 走亲访友&lt;br&gt;&lt;span style=&quot;white-space: pre;&quot;&gt;	&lt;/span&gt;|- 计划协商&lt;br&gt;&lt;/span&gt;&lt;br&gt;&lt;br&gt;节点风险：&lt;/font&gt;&lt;br&gt;&lt;/font&gt;&lt;font style=&quot;font-size: 16px;&quot;&gt;&lt;br&gt;&lt;br&gt;&lt;br&gt;&lt;b&gt;潜在影响：&lt;/b&gt;&lt;br&gt;&lt;/font&gt;" style="text;spacingTop=-5;fillColor=#ffffff;whiteSpace=wrap;html=1;align=left;fontSize=12;fontFamily=Helvetica;fillColor=none;strokeColor=none;" vertex="1" parent="1">
          <mxGeometry x="50" y="334" width="140" height="470" as="geometry" />
        </mxCell>
        <mxCell id="mh83t6KGhlJCsGPIR6HT-26" value="&lt;font style=&quot;font-size: 16px;&quot;&gt;&lt;b style=&quot;font-size: 20px;&quot;&gt;资金解冻&lt;/b&gt;&lt;span style=&quot;font-weight: bold; font-size: 20px;&quot;&gt;&lt;br&gt;&lt;/span&gt;&lt;/font&gt;&lt;blockquote style=&quot;margin: 0 0 0 40px; border: none; padding: 0px;&quot;&gt;&lt;font style=&quot;font-size: 16px;&quot;&gt;&lt;font style=&quot;font-weight: bold; font-size: 16px;&quot;&gt;&lt;span style=&quot;font-weight: 400;&quot;&gt;|- 30W年金&lt;br&gt;&lt;/span&gt;&lt;/font&gt;&lt;/font&gt;&lt;font style=&quot;font-size: 16px;&quot;&gt;&lt;font style=&quot;font-weight: bold; font-size: 16px;&quot;&gt;&lt;span style=&quot;font-weight: 400;&quot;&gt;|- 资金调整&lt;/span&gt;&lt;/font&gt;&lt;/font&gt;&lt;/blockquote&gt;&lt;font style=&quot;font-size: 16px;&quot;&gt;&lt;font style=&quot;font-size: 16px;&quot;&gt;&lt;br&gt;&lt;br&gt;&lt;br&gt;&lt;b&gt;节点风险：&lt;/b&gt;&lt;br&gt;&lt;span style=&quot;white-space: pre;&quot;&gt;	&lt;/span&gt;|- 产品风险&lt;br&gt;&lt;/font&gt;&lt;br&gt;&lt;br&gt;&lt;font style=&quot;font-weight: bold; font-size: 16px;&quot;&gt;潜在影响：&lt;br&gt;&lt;/font&gt;&lt;span style=&quot;&quot;&gt;	&lt;/span&gt;&lt;span style=&quot;white-space: pre;&quot;&gt;	&lt;/span&gt;|- 心情/状态&lt;br&gt;&lt;span style=&quot;white-space: pre;&quot;&gt;	&lt;/span&gt;|- 后续开支&lt;br&gt;&lt;span style=&quot;white-space: pre;&quot;&gt;	&lt;/span&gt;|- 工作变动&lt;br&gt;&lt;/font&gt;&lt;font style=&quot;font-size: 16px;&quot;&gt;&lt;span style=&quot;&quot;&gt;	&lt;/span&gt;&lt;br&gt;&lt;/font&gt;" style="text;spacingTop=-5;fillColor=#ffffff;whiteSpace=wrap;html=1;align=left;fontSize=12;fontFamily=Helvetica;fillColor=none;strokeColor=none;" vertex="1" parent="1">
          <mxGeometry x="550" y="334" width="140" height="470" as="geometry" />
        </mxCell>
      </root>
    </mxGraphModel>
  </diagram>
</mxfile>
